# xmcd CD database file
#
# Track frame offsets:
#	150
#	3951
#	11153
#	21397
#	35002
#	41304
#	54786
#	71728
#	88044
#	95193
#	121979
#	131613
#	137091
#	148221
#	157003
#	163788
#	197092
#	205792
#
# Disc length: 3652 seconds
#
# Revision: 1
# Processed by: cddbd v1.5.2PL0 Copyright (c) Steve Scherf et al.
# Submitted via: CDex 1.51
#
DISCID=020e4212
DTITLE=Holmes - Sherlock Holmes - Das leere Haus
DYEAR=2000
DGENRE=Soundtrack
TTITLE0=1
TTITLE1=2
TTITLE2=3
TTITLE3=4
TTITLE4=5
TTITLE5=6
TTITLE6=7
TTITLE7=8
TTITLE8=9
TTITLE9=10
TTITLE10=11
TTITLE11=12
TTITLE12=13
TTITLE13=14
TTITLE14=15
TTITLE15=16
TTITLE16=17
TTITLE17=18
EXTD=YEAR: 2000
EXTT0=
EXTT1=
EXTT2=
EXTT3=
EXTT4=
EXTT5=
EXTT6=
EXTT7=
EXTT8=
EXTT9=
EXTT10=
EXTT11=
EXTT12=
EXTT13=
EXTT14=
EXTT15=
EXTT16=
EXTT17=
PLAYORDER=
